<svg xmlns="http://www.w3.org/2000/svg" viewBox="0 0 100 100"><g fill="none" fill-rule="evenodd"><path fill="#F9F4E3" d="M9 18.5h83v62H9z"/><path d="M31.795 71c2.475 0 4.763-.308 6.865-.924s3.909-1.472 5.422-2.565c1.512-1.093 2.7-2.395 3.565-3.906.864-1.511 1.296-3.161 1.296-4.95 0-2.068-.619-3.897-1.856-5.487-1.238-1.59-2.917-2.803-5.039-3.638 1.808-1.034 3.222-2.396 4.243-4.085 1.022-1.69 1.533-3.549 1.533-5.577 0-1.75-.393-3.36-1.18-4.83a11.35 11.35 0 00-3.24-3.758c-1.375-1.034-3.045-1.839-5.01-2.415-1.963-.577-4.105-.865-6.422-.865-3.143 0-6.208.646-9.193 1.938-2.986 1.292-5.48 3.072-7.484 5.338l6.482 5.904c1.728-1.789 3.31-3.031 4.744-3.727 1.434-.696 3.133-1.044 5.097-1.044 1.925 0 3.506.428 4.744 1.282 1.237.855 1.856 1.959 1.856 3.31 0 1.511-.628 2.754-1.886 3.728-1.257.974-2.868 1.461-4.832 1.461h-2.887v7.693h3.889c2.121 0 3.781.358 4.98 1.074 1.198.716 1.797 1.69 1.797 2.922 0 1.471-.698 2.644-2.092 3.52-1.395.874-3.231 1.311-5.51 1.311-2.24 0-4.115-.318-5.628-.954-1.512-.636-3.054-1.79-4.626-3.46L15 64.262c1.925 2.107 4.37 3.757 7.337 4.95C25.303 70.404 28.455 71 31.795 71zm36.489 0c2.475 0 4.763-.308 6.865-.924s3.909-1.472 5.421-2.565c1.513-1.093 2.701-2.395 3.566-3.906.864-1.511 1.296-3.161 1.296-4.95 0-2.068-.619-3.897-1.856-5.487-1.238-1.59-2.917-2.803-5.039-3.638 1.808-1.034 3.222-2.396 4.243-4.085 1.022-1.69 1.532-3.549 1.532-5.577 0-1.75-.392-3.36-1.178-4.83a11.35 11.35 0 00-3.241-3.758c-1.375-1.034-3.045-1.839-5.01-2.415-1.964-.577-4.105-.865-6.422-.865-3.143 0-6.208.646-9.193 1.938-2.986 1.292-5.48 3.072-7.484 5.338l6.482 5.904c1.728-1.789 3.31-3.031 4.744-3.727 1.434-.696 3.133-1.044 5.097-1.044 1.925 0 3.506.428 4.744 1.282 1.237.855 1.856 1.959 1.856 3.31 0 1.511-.629 2.754-1.886 3.728-1.257.974-2.868 1.461-4.832 1.461h-2.887v7.693h3.889c2.121 0 3.781.358 4.98 1.074 1.198.716 1.797 1.69 1.797 2.922 0 1.471-.698 2.644-2.092 3.52-1.395.874-3.232 1.311-5.51 1.311-2.24 0-4.115-.318-5.628-.954-1.512-.636-3.054-1.79-4.626-3.46l-6.423 5.965c1.925 2.107 4.37 3.757 7.337 4.95C61.792 70.404 64.944 71 68.284 71z" fill="#513AA6" fill-rule="nonzero"/></g></svg>